<svg width="96" height="32" viewBox="0 0 96 32" fill="none" xmlns="http://www.w3.org/2000/svg">
<path d="M0 31.4155V0.584476H6.7716V25.9604H18.0576V31.4155H0Z" fill="#0D0D0D"/>
<path d="M32.6161 8.71842C36.234 8.71842 39.0515 10.001 41.0686 12.5662C42.7335 14.6768 43.5659 17.2907 43.5659 20.4079C43.5659 24.0122 42.3012 26.9508 39.7719 29.2237C37.7228 31.0746 35.3375 32 32.6161 32C29.4784 32 26.837 30.7986 24.6919 28.3957C22.7068 26.2202 21.7143 23.5576 21.7143 20.4079C21.7143 16.8037 22.7869 13.9137 24.932 11.7382C26.9171 9.72501 29.4784 8.71842 32.6161 8.71842ZM28.3898 20.4079C28.3898 24.8564 29.8146 27.0807 32.6641 27.0807C35.4816 27.0807 36.8903 24.8564 36.8903 20.4079C36.8903 15.7321 35.4656 13.3942 32.6161 13.3942C29.7986 13.3942 28.3898 15.7321 28.3898 20.4079Z" fill="#0D0D0D"/>
<path d="M48.3403 31.4155V3.75038L54.8718 0V11.8356C55.5441 10.7316 56.5207 9.88737 57.8013 9.30289C58.7298 8.88077 59.7384 8.66971 60.8269 8.66971C64.0607 8.66971 66.574 9.75749 68.3669 11.933C69.9998 13.9462 70.8162 16.6088 70.8162 19.9209C70.8162 24.207 69.6156 27.4216 67.2143 29.5647C65.3894 31.1882 63.1001 32 60.3467 32C57.7213 32 55.6562 31.0746 54.1514 29.2237L53.6711 31.4155H48.3403ZM54.8718 23.0868C54.9678 24.3207 55.4321 25.3597 56.2645 26.204C57.097 27.0157 58.1055 27.4216 59.2901 27.4216C60.7309 27.4216 61.8515 26.8047 62.6519 25.5708C63.4844 24.3369 63.9006 22.6159 63.9006 20.4079C63.9006 18.2324 63.5004 16.5277 62.6999 15.2938C61.9315 14.0599 60.891 13.4429 59.5783 13.4429C56.4406 13.4429 54.8718 15.1801 54.8718 18.6545V23.0868Z" fill="#0D0D0D"/>
<path d="M85.0502 8.71842C88.6681 8.71842 91.4856 10.001 93.5027 12.5662C95.1676 14.6768 96 17.2907 96 20.4079C96 24.0122 94.7353 26.9508 92.206 29.2237C90.1569 31.0746 87.7716 32 85.0502 32C81.9125 32 79.2711 30.7986 77.126 28.3957C75.1409 26.2202 74.1484 23.5576 74.1484 20.4079C74.1484 16.8037 75.221 13.9137 77.3661 11.7382C79.3512 9.72501 81.9125 8.71842 85.0502 8.71842ZM80.8239 20.4079C80.8239 24.8564 82.2487 27.0807 85.0982 27.0807C87.9157 27.0807 89.3245 24.8564 89.3245 20.4079C89.3245 15.7321 87.8997 13.3942 85.0502 13.3942C82.2327 13.3942 80.8239 15.7321 80.8239 20.4079Z" fill="#0D0D0D"/>
</svg>
